<svg width="16" height="22" viewBox="0 0 16 22" fill="none" xmlns="http://www.w3.org/2000/svg">
<path d="M15.3222 11.5418C14.8111 10.8808 14.0398 10.4269 13.0084 10.1802C14.3218 9.51021 14.899 8.37315 14.7406 6.76879C14.6876 6.18701 14.5268 5.6828 14.2578 5.25542C13.9887 4.82795 13.6255 4.48429 13.1669 4.22431C12.7086 3.96401 12.2102 3.76586 11.6728 3.62925C11.1352 3.49264 10.5181 3.39345 9.82171 3.33181V0H7.7858V3.23924C7.43326 3.23924 6.89561 3.24804 6.17292 3.26568V0H4.13673V3.33181C3.84578 3.34065 3.41835 3.34515 2.85426 3.34515L0.0513916 3.33181V5.50016H1.51886C2.18876 5.50016 2.581 5.79992 2.69556 6.3992V10.1938C2.78383 10.1938 2.85426 10.1984 2.90719 10.2072H2.69556V15.5219C2.62513 15.9714 2.36955 16.1963 1.92879 16.1963H0.461408L0.0514842 18.6159H2.6958C2.86329 18.6159 3.10553 18.6181 3.42298 18.6221C3.74024 18.6265 3.97813 18.6287 4.13683 18.6287V22.0001H6.17334V18.6684C6.54344 18.6774 7.08108 18.6817 7.78622 18.6817V22.0001H9.82218V18.6287C10.5451 18.5935 11.1863 18.5278 11.7457 18.4305C12.3055 18.3332 12.8411 18.1814 13.3522 17.9741C13.8632 17.7671 14.2907 17.5091 14.6344 17.2006C14.9783 16.8924 15.2623 16.5 15.4874 16.0239C15.7118 15.5479 15.8553 14.997 15.9168 14.371C16.0318 13.1462 15.8334 12.203 15.3222 11.5418ZM6.21252 5.6452C6.27425 5.6452 6.44832 5.64298 6.73478 5.63853C7.02139 5.63399 7.25927 5.62964 7.44877 5.6252C7.63831 5.62084 7.89393 5.63186 8.21578 5.65831C8.53749 5.68475 8.80848 5.72008 9.02877 5.76407C9.24906 5.80807 9.49167 5.88082 9.75586 5.98219C10.0205 6.08347 10.2319 6.20692 10.3904 6.35233C10.5492 6.49774 10.6836 6.68293 10.7935 6.90771C10.9039 7.13245 10.959 7.39025 10.959 7.68107C10.959 7.92789 10.9194 8.15272 10.8401 8.35555C10.761 8.55824 10.6417 8.72796 10.4833 8.86457C10.3248 9.00123 10.1614 9.12034 9.99389 9.22161C9.82658 9.32289 9.61263 9.40448 9.3527 9.46612C9.09282 9.52785 8.86586 9.57634 8.67206 9.61153C8.47812 9.64682 8.23578 9.67113 7.94487 9.68428C7.65392 9.69743 7.43349 9.70642 7.28373 9.71077C7.13382 9.71512 6.92896 9.71512 6.66884 9.71077C6.40868 9.70642 6.25683 9.7041 6.21266 9.7041V5.64515H6.21252V5.6452ZM11.7723 14.6488C11.6884 14.8517 11.5806 15.0281 11.4484 15.178C11.3161 15.3276 11.1419 15.4599 10.9261 15.5744C10.7103 15.6891 10.5007 15.7815 10.2982 15.852C10.0954 15.9228 9.85066 15.9842 9.56447 16.0373C9.27763 16.0902 9.02659 16.1274 8.81043 16.1496C8.59458 16.1717 8.33688 16.1892 8.03707 16.2026C7.7375 16.2155 7.50378 16.2223 7.33638 16.2223C7.16888 16.2223 6.9573 16.2199 6.70167 16.2155C6.44591 16.2114 6.283 16.2092 6.21242 16.2092V11.7402C6.28286 11.7402 6.49222 11.7359 6.84046 11.7269C7.18875 11.718 7.47285 11.7139 7.69323 11.7139C7.91357 11.7139 8.21777 11.7269 8.60574 11.7535C8.99335 11.7798 9.3195 11.8193 9.58415 11.8722C9.84848 11.9252 10.1369 12.0066 10.4501 12.1169C10.7629 12.227 11.0164 12.3614 11.2104 12.52C11.4044 12.679 11.5673 12.8814 11.6995 13.1283C11.832 13.375 11.8981 13.6571 11.8981 13.9745C11.898 14.2215 11.8562 14.446 11.7723 14.6488Z" fill="#F9A71E"/>
</svg>
