<svg width="84" height="38" viewBox="0 0 84 38" fill="none" xmlns="http://www.w3.org/2000/svg">
<path d="M2.84233 32.3846H0V37C0 37.5523 0.447717 38 1 38H83C83.5523 38 84 37.5523 84 37V2.49451L81.3733 5.81565C80.867 6.45587 79.8483 6.25251 79.6266 5.46694L78.5714 1.72837C78.4498 1.29753 78.0567 1 77.609 1H73.9171C73.6502 1 73.3943 1.10673 73.2065 1.29643L70.6615 3.86695C70.3667 4.16476 69.9174 4.24713 69.536 4.07327L67.1119 2.96808C66.5618 2.71728 65.9167 3.00822 65.7405 3.58656L63.5528 10.7677C63.3184 11.5372 62.3176 11.7291 61.8152 11.1009L60.012 8.84587C59.7315 8.49514 59.1827 8.55012 58.9773 8.94952C58.8035 9.28776 58.3687 9.39087 58.0614 9.16674L57.5007 8.75773C57.019 8.40635 56.3388 8.5519 56.0431 9.06964L54.4099 11.9289C54.1888 12.3159 53.7383 12.5099 53.3053 12.4046L51.8903 12.0605C51.3715 11.9344 50.8451 12.2381 50.6946 12.7504L48.0264 21.8332C47.9404 22.126 47.7254 22.3635 47.4425 22.4781L44.0997 23.8329C43.6318 24.0225 43.096 23.8336 42.8504 23.3926L40.8601 19.8189C40.4716 19.1212 39.4623 19.138 39.0971 19.8482L38.5936 20.8277C38.4785 21.0515 38.2833 21.2237 38.0469 21.31L35.79 22.1331C35.5063 22.2366 35.2846 22.4627 35.1867 22.7484L33.7204 27.0268C33.613 27.34 33.3576 27.5798 33.0382 27.6671L29.7804 28.5583C29.567 28.6167 29.379 28.7442 29.2458 28.9208L27.3723 31.4057C26.9911 31.9112 26.2421 31.9398 25.8235 31.4648L24.9047 30.4222C24.5748 30.0478 24.0194 29.974 23.6032 30.2491L18.4947 33.6248C18.152 33.8512 17.7058 33.8451 17.3694 33.6094L16.2075 32.795C15.8573 32.5496 15.3898 32.554 15.0443 32.806L13.8365 33.687C13.6654 33.8119 13.459 33.8791 13.2472 33.8791H9.8907C9.62497 33.8791 9.37016 33.7734 9.18254 33.5852L6.17626 30.5698C5.75213 30.1444 5.05132 30.1863 4.68087 30.6592L3.62955 32.0013C3.44 32.2433 3.1497 32.3846 2.84233 32.3846Z" fill="url(#paint0_linear_2_77)"/>
<path d="M0.5 32.3846H2.84236C3.14973 32.3846 3.44003 32.2433 3.62957 32.0013L4.6809 30.6592C5.05134 30.1863 5.75216 30.1444 6.17629 30.5698L9.18256 33.5852C9.37018 33.7734 9.62499 33.8791 9.89073 33.8791H13.2472C13.4591 33.8791 13.6654 33.8119 13.8365 33.687L14.8853 32.922C15.3027 32.6175 15.8833 32.6811 16.2249 33.0687L17.2899 34.2773C17.6455 34.6807 18.2564 34.7307 18.6729 34.3905L23.5833 30.3787C23.9997 30.0385 24.6107 30.0885 24.9662 30.492L25.8236 31.4648C26.2421 31.9398 26.9911 31.9112 27.3723 31.4057L29.2458 28.9208C29.379 28.7442 29.567 28.6167 29.7804 28.5583L33.0383 27.6671C33.3576 27.5798 33.6131 27.34 33.7204 27.0268L35.1867 22.7484C35.2846 22.4627 35.5063 22.2366 35.79 22.1331L38.0469 21.31C38.2833 21.2237 38.4786 21.0515 38.5936 20.8277L39.0972 19.8482C39.4623 19.138 40.4716 19.1212 40.8602 19.8189L42.8505 23.3926C43.0961 23.8336 43.6319 24.0225 44.0997 23.8329L47.4426 22.4781C47.7254 22.3635 47.9404 22.126 48.0264 21.8332L50.6946 12.7504C50.8451 12.2381 51.3715 11.9344 51.8903 12.0605L53.3053 12.4046C53.7384 12.5099 54.1889 12.3159 54.4099 11.9289L56.0431 9.06964C56.3388 8.5519 57.0191 8.40635 57.5008 8.75773L58.0615 9.16674C58.3687 9.39087 58.8035 9.28775 58.9774 8.94952V8.94952C59.1827 8.55012 59.7315 8.49514 60.012 8.84587L61.8153 11.1009C62.3176 11.7291 63.3184 11.5372 63.5529 10.7677L65.7405 3.58657C65.9167 3.00822 66.5618 2.71728 67.1119 2.96808L69.5361 4.07327C69.9174 4.24713 70.3667 4.16476 70.6615 3.86695L73.2065 1.29643C73.3944 1.10673 73.6502 1 73.9172 1H77.6091C78.0567 1 78.4499 1.29753 78.5715 1.72837L79.5798 5.30119C79.8099 6.11643 80.886 6.29423 81.3661 5.59635L83.5 2.49451" stroke="#F6543E" stroke-linecap="round"/>
<defs>
<linearGradient id="paint0_linear_2_77" x1="42" y1="1" x2="42" y2="38" gradientUnits="userSpaceOnUse">
<stop stop-color="#FEF0EE"/>
<stop offset="1" stop-color="#FEF0EE" stop-opacity="0"/>
</linearGradient>
</defs>
</svg>
