<svg width="16" height="16" viewBox="0 0 16 16" fill="none" xmlns="http://www.w3.org/2000/svg">
<g clip-path="url(#clip0_2_198)">
<path d="M13.3252 8.39401C12.9534 7.91334 12.3925 7.58319 11.6424 7.40375C12.5976 6.91651 13.0174 6.08956 12.9022 4.92275C12.8636 4.49964 12.7467 4.13295 12.5511 3.82212C12.3553 3.51123 12.0912 3.2613 11.7576 3.07223C11.4244 2.88292 11.0619 2.73881 10.671 2.63945C10.2801 2.5401 9.83123 2.46796 9.3248 2.42313V0H7.84414V2.35581C7.58775 2.35581 7.19673 2.36221 6.67114 2.37504V0H5.19027V2.42313C4.97867 2.42957 4.66781 2.43283 4.25757 2.43283L2.21912 2.42313V4.00012H3.28637C3.77357 4.00012 4.05883 4.21812 4.14215 4.65396V7.41368C4.20634 7.41368 4.25757 7.41698 4.29606 7.42338H4.14215V11.2887C4.09093 11.6155 3.90505 11.7791 3.58449 11.7791H2.51731L2.21918 13.5388H4.14232C4.26414 13.5388 4.44031 13.5404 4.67118 13.5433C4.90191 13.5466 5.07492 13.5482 5.19034 13.5482V16.0001H6.67144V13.577C6.9406 13.5836 7.33162 13.5867 7.84445 13.5867V16.0001H9.32514V13.5482C9.8509 13.5226 10.3172 13.4748 10.7241 13.404C11.1312 13.3332 11.5207 13.2228 11.8924 13.0721C12.2641 12.9215 12.575 12.7339 12.8249 12.5095C13.075 12.2854 13.2816 12 13.4453 11.6538C13.6085 11.3075 13.7128 10.9069 13.7576 10.4517C13.8413 9.56085 13.6969 8.87488 13.3252 8.39401ZM6.69993 4.1056C6.74483 4.1056 6.87143 4.10398 7.07976 4.10075C7.2882 4.09745 7.46121 4.09428 7.59903 4.09105C7.73687 4.08789 7.92278 4.0959 8.15685 4.11513C8.39082 4.13436 8.58791 4.16006 8.74812 4.19205C8.90833 4.22405 9.08477 4.27696 9.27691 4.35068C9.46939 4.42434 9.62313 4.51413 9.73838 4.61988C9.85387 4.72563 9.9516 4.86031 10.0316 5.02379C10.1118 5.18723 10.1519 5.37473 10.1519 5.58623C10.1519 5.76574 10.1231 5.92925 10.0655 6.07676C10.0079 6.22418 9.92119 6.34761 9.80594 6.44696C9.69066 6.54635 9.57184 6.63297 9.45002 6.70663C9.32834 6.78028 9.17274 6.83963 8.9837 6.88445C8.7947 6.92935 8.62964 6.96461 8.48869 6.9902C8.34764 7.01587 8.1714 7.03355 7.95983 7.04311C7.74823 7.05268 7.58791 7.05921 7.479 7.06238C7.36998 7.06554 7.22098 7.06554 7.03181 7.06238C6.8426 7.05921 6.73216 7.05753 6.70004 7.05753V4.10557H6.69993V4.1056ZM10.7434 10.6537C10.6824 10.8012 10.604 10.9295 10.5079 11.0386C10.4116 11.1473 10.285 11.2436 10.128 11.3268C9.97104 11.4103 9.81864 11.4775 9.67133 11.5287C9.52381 11.5802 9.34585 11.6249 9.13772 11.6635C8.92911 11.702 8.74654 11.729 8.58932 11.7452C8.43234 11.7612 8.24492 11.774 8.02689 11.7837C7.80902 11.7931 7.63904 11.798 7.51729 11.798C7.39547 11.798 7.24159 11.7963 7.05568 11.7931C6.86968 11.7901 6.75119 11.7885 6.69987 11.7885V8.53832C6.75109 8.53832 6.90335 8.53519 7.15662 8.52866C7.40992 8.52219 7.61654 8.5192 7.77682 8.5192C7.93706 8.5192 8.1583 8.52866 8.44046 8.54803C8.72236 8.56712 8.95956 8.59585 9.15203 8.63431C9.34427 8.67284 9.55406 8.73205 9.78179 8.81227C10.0093 8.89236 10.1937 8.99009 10.3348 9.10548C10.4758 9.22106 10.5943 9.36828 10.6905 9.54782C10.7868 9.72726 10.8349 9.93243 10.8349 10.1633C10.8348 10.3429 10.8044 10.5062 10.7434 10.6537Z" fill="white"/>
</g>
<defs>
<clipPath id="clip0_2_198">
<rect width="16" height="16" fill="white"/>
</clipPath>
</defs>
</svg>
