<svg width="16" height="24" viewBox="0 0 16 24" fill="none" xmlns="http://www.w3.org/2000/svg">
<path fill-rule="evenodd" clip-rule="evenodd" d="M7.76749 0.399433C7.71478 0.525598 6.12182 3.20041 4.22759 6.34349C2.33336 9.4865 0.767771 12.0993 0.748401 12.1497C0.723246 12.2153 1.75233 12.8555 4.35681 14.3945L8.00052 16.5474L11.6432 14.3933C14.2601 12.8457 15.2759 12.2131 15.2505 12.1468C15.1189 11.8037 8.03542 0.169983 7.95814 0.169983C7.90601 0.169983 7.82021 0.273203 7.76749 0.399433ZM0.757046 13.6981C0.897446 13.9382 7.97042 23.8898 8 23.8889C8.04888 23.8874 15.2803 13.6686 15.2523 13.6406C15.2259 13.6143 8.46663 17.5952 8.18466 17.8032L8.01183 17.9307L4.51216 15.8645C2.58732 14.7281 0.941386 13.7524 0.854546 13.6965C0.710571 13.6037 0.701926 13.6039 0.757046 13.6981Z" fill="#6374C4"/>
</svg>
