<svg width="18" height="18" viewBox="0 0 18 18" fill="none" xmlns="http://www.w3.org/2000/svg">
<path fill-rule="evenodd" clip-rule="evenodd" d="M8.83904 0.968909C8.80254 1.05625 7.69972 2.90805 6.38833 5.08402C5.07695 7.25995 3.99308 9.06882 3.97967 9.10374C3.96225 9.14915 4.67469 9.59235 6.4778 10.6578L9.00036 12.1483L11.5222 10.657C13.3339 9.58556 14.0372 9.14761 14.0196 9.10172C13.9284 8.8642 9.02452 0.810059 8.97102 0.810059C8.93493 0.810059 8.87553 0.881519 8.83904 0.968909ZM3.98565 10.1757C4.08285 10.3419 8.97952 17.2315 9 17.2308C9.03384 17.2298 14.0402 10.1553 14.0208 10.1359C14.0026 10.1176 9.32305 12.8737 9.12784 13.0177L9.00819 13.106L6.58535 11.6755C5.25276 10.8888 4.11327 10.2133 4.05315 10.1746C3.95348 10.1103 3.94749 10.1104 3.98565 10.1757Z" fill="white"/>
</svg>
