<svg width="86" height="36" viewBox="0 0 86 36" fill="none" xmlns="http://www.w3.org/2000/svg">
<path d="M2.36174 28.3459L1 26.6386V35C1 35.5523 1.44772 36 2 36H84C84.5523 36 85 35.5523 85 35V4.77108L82.2802 8.01719C81.8269 8.55818 80.9709 8.47204 80.6346 7.85157L78.1127 3.20008C77.885 2.77998 77.3287 2.67539 76.9639 2.9841C76.6008 3.29139 76.0473 3.18938 75.8176 2.77283L74.9107 1.12823C74.5954 0.556454 73.8257 0.435305 73.35 0.882597L72.8285 1.37299C72.6781 1.51443 72.4876 1.60584 72.2831 1.63468L67.6258 2.2916C67.223 2.3484 66.8949 2.64343 66.7956 3.03783L64.6866 11.4212C64.4434 12.3881 63.09 12.4426 62.7698 11.4984L60.9886 6.24515C60.851 5.83931 60.4701 5.56627 60.0415 5.56627H58.5125C58.0203 5.56627 57.6013 5.92443 57.5247 6.41064L56.6632 11.8785C56.5866 12.3647 56.1676 12.7229 55.6754 12.7229H54.8446C54.6567 12.7229 54.4726 12.67 54.3134 12.5702L53.077 11.7951C52.5348 11.4552 51.8172 11.705 51.6034 12.3083L49.4182 18.4727C49.2085 19.0642 48.4192 19.1739 48.0562 18.6618C47.7002 18.1598 46.9291 18.2533 46.7035 18.826L46.6189 19.0409C46.3246 19.7881 45.2731 19.8045 44.9556 19.0669L42.1206 12.4808C41.7506 11.6213 40.5082 11.6954 40.2431 12.5929L39.8973 13.7635C39.7422 14.2886 39.1937 14.5913 38.6668 14.4427L37.729 14.1781C37.2102 14.0318 36.6687 14.323 36.5048 14.8366L34.4596 21.2474C34.3393 21.6244 34.0081 21.895 33.6147 21.9377L31.1702 22.2029C30.8156 22.2414 30.5084 22.4658 30.3638 22.7919L28.9293 26.0294C28.5468 26.8926 27.2912 26.7936 27.0486 25.8812L26.662 24.427C26.4399 23.5915 25.334 23.4125 24.8596 24.1351L20.1835 31.2585C19.7231 31.9598 18.6557 31.8166 18.3965 31.0187L16.8148 26.1513C16.5233 25.2543 15.2659 25.2225 14.9295 26.1037L14.1006 28.2751C14.0141 28.5016 13.8483 28.689 13.6339 28.8024L12.8225 29.2316C12.254 29.5323 11.5537 29.226 11.3885 28.6046L10.2177 24.2009C10.1012 23.7628 9.70459 23.4578 9.25126 23.4578H8.96228C8.57553 23.4578 8.22345 23.2348 8.05818 22.8852L7.73296 22.1971C7.34365 21.3734 6.14553 21.4569 5.87423 22.3266L4.09815 28.0201C3.85934 28.7857 2.86178 28.9728 2.36174 28.3459Z" fill="url(#paint0_linear_2_80)"/>
<path d="M1 26.6386L2.36174 28.3459C2.86178 28.9728 3.85934 28.7857 4.09815 28.0201L5.87423 22.3266C6.14553 21.4569 7.34365 21.3734 7.73296 22.1971L8.05818 22.8852C8.22345 23.2348 8.57553 23.4578 8.96228 23.4578H9.25126C9.70459 23.4578 10.1012 23.7628 10.2177 24.2009L11.3885 28.6046C11.5537 29.226 12.254 29.5323 12.8225 29.2316L13.6339 28.8024C13.8483 28.689 14.0141 28.5016 14.1006 28.2751L14.9295 26.1037C15.2659 25.2225 16.5233 25.2543 16.8148 26.1513L18.3965 31.0187C18.6557 31.8166 19.7231 31.9598 20.1835 31.2585L24.8596 24.1351C25.334 23.4125 26.4399 23.5915 26.662 24.427L27.0486 25.8812C27.2912 26.7936 28.5468 26.8926 28.9293 26.0294L30.3638 22.7919C30.5084 22.4658 30.8156 22.2414 31.1702 22.2029L33.6147 21.9377C34.0081 21.895 34.3393 21.6244 34.4596 21.2474L36.5048 14.8366C36.6687 14.323 37.2102 14.0318 37.729 14.1781L38.6668 14.4427C39.1937 14.5913 39.7422 14.2886 39.8973 13.7635L40.2431 12.5929C40.5082 11.6954 41.7506 11.6213 42.1206 12.4808L44.9556 19.0669C45.2731 19.8045 46.3246 19.7881 46.6189 19.0409L46.7035 18.826C46.9291 18.2533 47.7002 18.1598 48.0562 18.6619V18.6619C48.4192 19.1739 49.2085 19.0642 49.4182 18.4727L51.6034 12.3083C51.8172 11.705 52.5348 11.4552 53.077 11.7951L54.3134 12.5702C54.4726 12.67 54.6567 12.7229 54.8446 12.7229H55.6754C56.1676 12.7229 56.5866 12.3647 56.6632 11.8785L57.5247 6.41064C57.6013 5.92443 58.0203 5.56627 58.5125 5.56627H60.0415C60.4701 5.56627 60.851 5.83931 60.9886 6.24515L62.7698 11.4984C63.09 12.4426 64.4434 12.3881 64.6866 11.4212L66.7956 3.03783C66.8949 2.64343 67.223 2.3484 67.6258 2.2916L72.2831 1.63468C72.4876 1.60584 72.6781 1.51443 72.8285 1.37299L73.35 0.882597C73.8257 0.435305 74.5954 0.556454 74.9107 1.12823L75.8176 2.77283C76.0473 3.18938 76.6008 3.29139 76.9639 2.9841V2.9841C77.3287 2.67539 77.885 2.77998 78.1127 3.20009L80.6346 7.85157C80.971 8.47204 81.8269 8.55818 82.2802 8.01719L85 4.77108" stroke="#6374C3" stroke-linecap="round"/>
<defs>
<linearGradient id="paint0_linear_2_80" x1="43" y1="0" x2="43" y2="36" gradientUnits="userSpaceOnUse">
<stop stop-color="#F1F2F8"/>
<stop offset="1" stop-color="#F1F2F8" stop-opacity="0"/>
</linearGradient>
</defs>
</svg>
