<svg width="311" height="186" viewBox="0 0 311 186" fill="none" xmlns="http://www.w3.org/2000/svg">
<g opacity="0.2">
<rect x="0.03125" width="1.04688" height="186" fill="#B9C1D9"/>
<rect x="38.7656" width="1.04688" height="186" fill="#B9C1D9"/>
<rect x="77.5001" width="1.04688" height="186" fill="#B9C1D9"/>
<rect x="116.234" width="1.04688" height="186" fill="#B9C1D9"/>
<rect x="154.969" width="1.04688" height="186" fill="#B9C1D9"/>
<rect x="193.703" width="1.04688" height="186" fill="#B9C1D9"/>
<rect x="232.437" width="1.04688" height="186" fill="#B9C1D9"/>
<rect x="271.172" width="1.04688" height="186" fill="#B9C1D9"/>
<rect x="309.906" y="185" width="1.00001" height="308.828" transform="rotate(90 309.906 185)" fill="#B9C1D9"/>
<rect x="309.906" y="148" width="1.00001" height="308.828" transform="rotate(90 309.906 148)" fill="#B9C1D9"/>
<rect x="309.906" y="111" width="1.00001" height="308.828" transform="rotate(90 309.906 111)" fill="#B9C1D9"/>
<rect x="309.906" y="74" width="1.00001" height="308.828" transform="rotate(90 309.906 74)" fill="#B9C1D9"/>
<rect x="309.906" y="37" width="1.00001" height="308.828" transform="rotate(90 309.906 37)" fill="#B9C1D9"/>
<rect x="309.906" width="1.00001" height="308.828" transform="rotate(90 309.906 0)" fill="#B9C1D9"/>
<rect x="309.906" width="1.04688" height="186" fill="#B9C1D9"/>
</g>
</svg>
