<svg width="309" height="130" viewBox="0 0 309 130" fill="none" xmlns="http://www.w3.org/2000/svg">
<path d="M1.91626 119.753H11.3271C11.9516 119.753 12.5403 119.461 12.9185 118.964L18.4415 111.708C19.1829 110.734 20.6177 110.648 21.4694 111.528L34.326 124.799C34.7027 125.188 35.221 125.408 35.7625 125.408H49.313C49.7461 125.408 50.1674 125.267 50.5138 125.007L56.0126 120.879C56.8561 120.245 58.0465 120.376 58.7325 121.177L64.6973 128.143C65.4112 128.977 66.6636 129.079 67.5036 128.373L88.0082 111.132C88.8482 110.426 90.1006 110.528 90.8145 111.362L96.358 117.836C97.1964 118.815 98.7286 118.757 99.4905 117.717L107.949 106.172C108.213 105.811 108.59 105.55 109.02 105.429L122.4 101.662C123.039 101.482 123.547 100.997 123.756 100.368L129.71 82.4874C129.901 81.9148 130.34 81.4589 130.905 81.2468L140.575 77.617C141.048 77.4396 141.436 77.0899 141.661 76.6383L145.242 69.471C145.965 68.0229 148.019 67.9892 148.79 69.4129L159.2 88.6507L166.356 107.97C166.741 109.01 167.899 109.538 168.937 109.147L188.479 101.782C189.149 101.53 189.633 100.938 189.748 100.232L198.689 45.17C198.726 44.942 198.802 44.7221 198.914 44.5201L207.047 29.8677C207.635 28.8067 209.026 28.5103 209.996 29.2388L213.775 32.0755C214.773 32.8251 216.207 32.4868 216.765 31.3698L217.098 30.7025C217.756 29.3854 219.563 29.2065 220.467 30.3691L231.699 44.8254L249.703 72.4398C250.744 74.0369 253.218 73.4097 253.372 71.5093L258.005 14.4343C258.042 13.9746 258.237 13.5419 258.557 13.2096L269.713 1.61343C270.09 1.22149 270.61 1 271.154 1H286.667C287.568 1 288.357 1.60227 288.596 2.47105L293.625 20.8103C294.078 22.463 296.264 22.8175 297.216 21.3928L307.068 6.65489" stroke="#F9A312" stroke-width="2" stroke-linecap="round"/>
</svg>
