<svg width="85" height="35" viewBox="0 0 85 35" fill="none" xmlns="http://www.w3.org/2000/svg">
<path d="M3.30728 31.413H1V34C1 34.5523 1.44772 35 2 35H84C84.5523 35 85 34.5523 85 34V8.5L82.215 18.326C81.9198 19.3676 80.4105 19.2627 80.2623 18.1902L79.6447 13.7202C79.5342 12.9204 78.5704 12.5745 77.9766 13.1215L77.6174 13.4523C77.109 13.9207 76.2901 13.7442 76.0197 13.1081L75.2245 11.2377C74.92 10.5216 73.9503 10.4123 73.4941 11.0426L69.434 16.6523C69.1415 17.0564 68.5864 17.1658 68.1625 16.9028C67.6368 16.5767 66.9447 16.8314 66.7557 17.4204L64.832 23.4178C64.5286 24.3639 63.1806 24.3364 62.9159 23.3787L61.2742 17.438C61.2616 17.3924 61.2458 17.3478 61.2269 17.3045L59.0024 12.2063C58.6708 11.4464 57.6117 11.3969 57.2106 12.1225L56.7703 12.9193C56.455 13.4897 55.6871 13.6109 55.2115 13.1654L53.1619 11.2458C52.5811 10.7018 51.6284 11.0213 51.4929 11.8055L50.5558 17.231C50.54 17.3229 50.5113 17.4122 50.4707 17.4962L49.5353 19.4304C49.1923 20.1397 48.2018 20.1922 47.7858 19.5231L46.6812 17.7465C46.532 17.5065 46.2881 17.3409 46.01 17.2905L45.0484 17.1165C44.6572 17.0458 44.345 16.7499 44.2534 16.363L41.9518 6.64627C41.7392 5.74884 40.5285 5.59307 40.0957 6.40748L40.0439 6.50498C39.6096 7.32211 38.394 7.16186 38.1863 6.26011L37.5267 3.39567C37.3012 2.41678 35.9349 2.34412 35.607 3.29358L33.9135 8.19607C33.7743 8.59914 33.3947 8.86957 32.9683 8.86957H30.2485C29.8518 8.86957 29.4927 9.104 29.333 9.4671L28.5455 11.2584C28.2635 11.8998 27.3535 11.8998 27.0715 11.2584C26.7527 10.5332 25.6882 10.6561 25.543 11.4349L21.7631 31.7109C21.7108 31.9916 21.541 32.2365 21.2965 32.384L19.6752 33.3618C19.1304 33.6904 18.4213 33.4334 18.2136 32.832L16.9091 29.0556C16.6525 28.3127 15.6785 28.1426 15.1853 28.7546L12.1648 32.5021C11.6567 33.1325 10.6492 32.9292 10.4252 32.1511L9.70941 29.6644C9.69042 29.5985 9.66469 29.5346 9.63262 29.4739L7.52873 25.4916C7.10715 24.6936 5.92768 24.8183 5.68223 25.6867L4.26959 30.685C4.14787 31.1157 3.75482 31.413 3.30728 31.413Z" fill="url(#paint0_linear_2_96)"/>
<path d="M1 31.413H3.30728C3.75482 31.413 4.14787 31.1157 4.26959 30.685L5.68223 25.6867C5.92768 24.8183 7.10715 24.6936 7.52873 25.4916L9.63262 29.4739C9.66469 29.5346 9.69042 29.5985 9.70941 29.6644L10.4252 32.1511C10.6492 32.9292 11.6567 33.1324 12.1648 32.5021L15.1853 28.7546C15.6785 28.1426 16.6525 28.3127 16.9091 29.0556L18.2136 32.832C18.4213 33.4334 19.1304 33.6904 19.6752 33.3618L21.2965 32.384C21.541 32.2365 21.7108 31.9916 21.7631 31.7109L25.543 11.4349C25.6882 10.6561 26.7527 10.5332 27.0715 11.2584V11.2584C27.3535 11.8998 28.2635 11.8998 28.5455 11.2584L29.333 9.4671C29.4927 9.104 29.8518 8.86957 30.2485 8.86957H32.9683C33.3947 8.86957 33.7743 8.59914 33.9135 8.19607L35.607 3.29358C35.9349 2.34412 37.3012 2.41678 37.5267 3.39567L38.1863 6.26011C38.394 7.16186 39.6096 7.32211 40.0439 6.50498L40.0957 6.40748C40.5285 5.59307 41.7392 5.74884 41.9518 6.64627L44.2534 16.363C44.345 16.7499 44.6572 17.0458 45.0484 17.1165L46.01 17.2905C46.2881 17.3409 46.532 17.5065 46.6812 17.7465L47.7858 19.5231C48.2018 20.1922 49.1923 20.1397 49.5353 19.4304L50.4707 17.4962C50.5113 17.4122 50.54 17.3229 50.5558 17.231L51.4929 11.8055C51.6284 11.0213 52.5811 10.7018 53.1619 11.2458L55.2115 13.1654C55.6871 13.6109 56.455 13.4897 56.7703 12.9193L57.2106 12.1225C57.6117 11.3969 58.6708 11.4464 59.0024 12.2063L61.2269 17.3045C61.2458 17.3478 61.2616 17.3924 61.2742 17.438L62.9159 23.3787C63.1806 24.3364 64.5286 24.3639 64.832 23.4178L66.7557 17.4204C66.9447 16.8314 67.6368 16.5767 68.1625 16.9028V16.9028C68.5864 17.1658 69.1415 17.0564 69.434 16.6523L73.4941 11.0426C73.9503 10.4123 74.92 10.5216 75.2245 11.2377L76.0197 13.1081C76.2901 13.7442 77.109 13.9207 77.6174 13.4523L77.9766 13.1215C78.5704 12.5745 79.5342 12.9204 79.6447 13.7202L80.2053 17.7775C80.356 18.8679 81.9006 18.9502 82.1663 17.882L84.5 8.5" stroke="#B7217D" stroke-linecap="round"/>
<defs>
<linearGradient id="paint0_linear_2_96" x1="43" y1="0" x2="43" y2="35" gradientUnits="userSpaceOnUse">
<stop stop-color="#F0F1FF"/>
<stop offset="1" stop-color="#F0F1FF" stop-opacity="0"/>
</linearGradient>
</defs>
</svg>
