<svg width="221" height="220" viewBox="0 0 221 220" fill="none" xmlns="http://www.w3.org/2000/svg">
<path d="M145.34 156.219C154.701 168.654 152.053 186.845 137.219 191.497C125.721 195.103 113.473 196.336 101.246 194.993C79.4905 192.603 59.399 182.231 44.9729 165.944C30.5469 149.656 22.845 128.648 23.4013 107.103C23.9576 85.5588 32.7311 65.0588 47.9746 49.6863C63.2181 34.3137 83.8129 25.1968 105.657 24.1513C127.501 23.1058 148.992 30.2084 165.849 44.0445C182.706 57.8806 193.691 77.4349 196.619 98.8127C198.283 110.967 197.272 123.204 193.783 134.731C189.348 149.387 171.534 152.362 158.959 143.606L154.327 140.382C144.072 133.241 142.7 118.269 141.005 105.89C139.966 98.299 136.065 91.3558 130.08 86.443C124.094 81.5302 116.464 79.0083 108.708 79.3795C100.951 79.7508 93.6388 82.9879 88.2263 88.4462C82.8137 93.9046 79.6985 101.184 79.501 108.833C79.3035 116.483 82.0382 123.943 87.1604 129.726C92.2827 135.509 99.4166 139.192 107.141 140.04C119.812 141.432 134.999 142.482 142.67 152.673L145.34 156.219Z" fill="#F9A71E"/>
<path d="M144.941 156.52C149.539 162.629 151.179 170.141 149.862 176.677C148.548 183.201 144.294 188.754 137.069 191.02C125.636 194.605 113.458 195.831 101.3 194.495C79.6671 192.119 59.6899 181.806 45.3469 165.612C31.0041 149.419 23.3481 128.534 23.901 107.117C24.454 85.7004 33.1754 65.3214 48.3298 50.0387C63.4844 34.7558 83.9608 25.6904 105.682 24.6508C127.402 23.6112 148.771 30.6738 165.532 44.4309C182.292 58.1879 193.214 77.6287 196.123 98.88C197.778 110.962 196.773 123.126 193.305 134.585C191.145 141.723 185.736 146.014 179.313 147.46C172.877 148.909 165.422 147.498 159.244 143.196L154.612 139.971C149.617 136.493 146.756 131.088 144.935 124.958C143.343 119.597 142.56 113.738 141.821 108.202C141.714 107.401 141.608 106.607 141.501 105.822C140.444 98.1052 136.478 91.0485 130.397 86.0566C124.315 81.0648 116.563 78.5029 108.683 78.88C100.803 79.2572 93.3725 82.5459 87.8711 88.0938C82.3695 93.642 79.2021 101.042 79.0013 108.82C78.8004 116.598 81.581 124.18 86.7865 130.057C91.9917 135.934 99.2401 139.675 107.087 140.537C107.823 140.618 108.567 140.698 109.316 140.778C115.036 141.391 121.087 142.039 126.651 143.54C132.938 145.236 138.53 148.003 142.271 152.973L144.941 156.52Z" stroke="black" stroke-opacity="0.05"/>
<mask id="path-3-inside-1_2_190" fill="white">
<path d="M195.549 110.239C196.649 110.247 197.536 111.141 197.507 112.24C197.114 126.969 192.894 141.346 185.238 153.984C177.238 167.189 165.781 178.008 152.067 185.309C138.353 192.61 122.886 196.123 107.288 195.481C92.3609 194.867 77.839 190.469 65.1131 182.726C64.1653 182.149 63.9002 180.902 64.5079 179.972L92.6819 136.843C93.2833 135.922 94.5116 135.663 95.4721 136.195C99.7227 138.55 104.48 139.889 109.359 140.09C114.9 140.318 120.395 139.069 125.268 136.476C130.14 133.882 134.21 130.038 137.052 125.347C139.546 121.231 141.013 116.596 141.348 111.822C141.426 110.715 142.326 109.818 143.436 109.827L195.549 110.239Z"/>
</mask>
<path d="M195.549 110.239C196.649 110.247 197.536 111.141 197.507 112.24C197.114 126.969 192.894 141.346 185.238 153.984C177.238 167.189 165.781 178.008 152.067 185.309C138.353 192.61 122.886 196.123 107.288 195.481C92.3609 194.867 77.839 190.469 65.1131 182.726C64.1653 182.149 63.9002 180.902 64.5079 179.972L92.6819 136.843C93.2833 135.922 94.5116 135.663 95.4721 136.195C99.7227 138.55 104.48 139.889 109.359 140.09C114.9 140.318 120.395 139.069 125.268 136.476C130.14 133.882 134.21 130.038 137.052 125.347C139.546 121.231 141.013 116.596 141.348 111.822C141.426 110.715 142.326 109.818 143.436 109.827L195.549 110.239Z" fill="#6374C3" stroke="black" stroke-opacity="0.05" stroke-width="2" mask="url(#path-3-inside-1_2_190)"/>
</svg>
