<svg width="20" height="20" viewBox="0 0 20 20" fill="none" xmlns="http://www.w3.org/2000/svg">
<path d="M12.0302 10.7482V10.7453C11.9162 10.754 11.3279 10.7914 10.0186 10.7914C8.97164 10.7914 8.23748 10.7597 7.97774 10.7453V10.7482C3.95176 10.5554 0.948847 9.79568 0.948847 8.88345C0.948847 7.9741 3.95441 7.21151 7.97774 7.0187V9.99137C8.24013 10.0115 8.99549 10.0604 10.0371 10.0604C11.2881 10.0604 11.9136 10.0029 12.0302 9.99137V7.02158C16.0482 7.21727 19.0432 7.97698 19.0432 8.88633C19.0432 9.79568 16.0456 10.5554 12.0302 10.7511V10.7482ZM12.0302 6.71367V4.05468H17.6358V0H2.37477V4.05468H7.98039V6.71367C3.42433 6.94101 0 7.91943 0 9.09353C0 10.2676 3.42698 11.246 7.98039 11.4763V20H12.0329V11.4763C16.581 11.2489 20 10.2705 20 9.0964C20 7.92518 16.581 6.94389 12.0329 6.71655" fill="#50AF95"/>
</svg>
